# xmcd
#
# Track frame offsets: 
#        150
#        12151
#        42068
#        62029
#        84778
#        101722
#        109218
#        119332
#        133672
#        146211
#        160715
#        181687
#        211487
#
# Disc length: 3074 seconds
#
# Revision: 0
# Processed by: cddbd v1.5.2PL0 Copyright (c) Steve Scherf et al.
# Submitted via: ExactAudioCopy v1.0b1
#
DISCID=ab0c000d
DTITLE=Forma Tadre - The Music Of Erich Zann
DYEAR=2008
DGENRE=Electronic
TTITLE0=Prologue
TTITLE1=The Ascent
TTITLE2=Out Of The Spirit World
TTITLE3=Across A Dark River
TTITLE4=The German Viol Player
TTITLE5=Antiquities
TTITLE6=Litany
TTITLE7=Physical But Mental
TTITLE8=The Keyhole
TTITLE9=The Music Of erich Zann
TTITLE10=Opposing Forces
TTITLE11=The Blackness Of Space
TTITLE12=Final Sheet
EXTD=
EXTT0=
EXTT1=
EXTT2=
EXTT3=
EXTT4=
EXTT5=
EXTT6=
EXTT7=
EXTT8=
EXTT9=
EXTT10=
EXTT11=
EXTT12=
PLAYORDER=
